<svg width="22" height="12" viewBox="0 0 22 12" fill="none" xmlns="http://www.w3.org/2000/svg">
<path d="M15.9207 3.61567L17.6959 0.54056C17.796 0.368168 17.7355 0.149184 17.5654 0.0490094C17.3953 -0.0511632 17.174 0.00707553 17.0762 0.179468L15.2777 3.29418C13.9055 2.66751 12.361 2.31807 10.7 2.31807C9.03896 2.31807 7.49441 2.66751 6.12226 3.29418L4.32379 0.179468C4.22362 0.00707553 4.00463 -0.0511632 3.83224 0.0490094C3.65984 0.149184 3.6016 0.368168 3.70178 0.54056L5.47695 3.61567C2.41582 5.27436 0.342455 8.37277 0 12H21.4C21.0575 8.37277 18.9841 5.27436 15.9207 3.61567ZM5.7868 8.99478C5.29058 8.99478 4.88989 8.59176 4.88989 8.09788C4.88989 7.60166 5.29291 7.20097 5.7868 7.20097C6.28301 7.20097 6.6837 7.60399 6.6837 8.09788C6.68604 8.59176 6.28301 8.99478 5.7868 8.99478ZM15.6108 8.99478C15.1146 8.99478 14.7139 8.59176 14.7139 8.09788C14.7139 7.60166 15.117 7.20097 15.6108 7.20097C16.107 7.20097 16.5077 7.60399 16.5077 8.09788C16.5101 8.59176 16.107 8.99478 15.6108 8.99478Z" fill="#B3B3B3"/>
</svg>
