<svg width="14" height="16" viewBox="0 0 14 16" fill="none" xmlns="http://www.w3.org/2000/svg">
<path d="M11.3802 8.50071C11.362 6.47591 13.0339 5.50384 13.1095 5.45644C12.1687 4.08002 10.7046 3.89146 10.1822 3.86928C8.93691 3.74323 7.75108 4.60236 7.11984 4.60236C6.4886 4.60236 5.5125 3.88743 4.47993 3.9076C3.12066 3.92776 1.86927 4.69715 1.16947 5.91324C-0.241238 8.36054 0.809481 11.9876 2.18288 13.9741C2.85546 14.9452 3.6561 16.0393 4.70883 15.9989C5.72325 15.9586 6.10643 15.3435 7.33059 15.3435C8.55474 15.3435 8.89961 15.9989 9.9715 15.9798C11.0615 15.9586 11.7533 14.9875 12.4208 14.0134C13.1912 12.8861 13.5099 11.795 13.528 11.7376C13.5038 11.7275 11.4024 10.9218 11.3802 8.50071Z" fill="#B3B3B3"/>
<path d="M9.36644 2.55518C9.92507 1.87856 10.3022 0.937744 10.1983 0C9.39359 0.0323027 8.41956 0.536462 7.84175 1.21308C7.32447 1.81106 6.87071 2.76899 6.99367 3.68764C7.89115 3.75722 8.80772 3.2308 9.36644 2.55518Z" fill="#B3B3B3"/>
</svg>
